<svg width="214" height="71" viewBox="0 0 214 71" fill="none" xmlns="http://www.w3.org/2000/svg">
<rect width="213.758" height="70.4689" rx="16" fill="black"/>
<path d="M44.7651 33.9484C44.717 28.7343 49.1439 26.1976 49.3463 26.0795C46.8392 22.5156 42.9532 22.0286 41.5876 21.9898C38.3238 21.6549 35.158 23.8939 33.4954 23.8939C31.7996 23.8939 29.2394 22.0221 26.48 22.0771C22.9292 22.1305 19.6074 24.1349 17.7855 27.2476C14.0256 33.5941 16.8298 42.9206 20.432 48.0506C22.234 50.563 24.3396 53.3682 27.0956 53.2695C29.7919 53.1611 30.7991 51.5935 34.0529 51.5935C37.2768 51.5935 38.2226 53.2695 41.0334 53.2064C43.9272 53.1611 45.749 50.6827 47.4879 48.1476C49.5703 45.268 50.4066 42.432 50.4397 42.2864C50.3717 42.2638 44.8198 40.1979 44.7651 33.9484Z" fill="white"/>
<path d="M39.4555 18.6151C40.9056 16.8469 41.8979 14.4412 41.6224 12C39.5235 12.0906 36.8985 13.4156 35.3869 15.145C34.0496 16.6689 32.8549 19.1668 33.1635 21.5158C35.5213 21.6873 37.9422 20.3558 39.4555 18.6151Z" fill="white"/>
<path d="M76.1942 17.5858C76.1942 19.4899 75.6085 20.9233 74.4387 21.8858C73.3552 22.774 71.8154 23.2189 69.821 23.2189C68.8321 23.2189 67.9858 23.1768 67.2773 23.0927V12.6888C68.2016 12.5432 69.1971 12.4688 70.2723 12.4688C72.1722 12.4688 73.6041 12.8716 74.5698 13.6772C75.6516 14.588 76.1942 15.8904 76.1942 17.5858ZM74.3607 17.6327C74.3607 16.3983 74.0256 15.4519 73.3552 14.7919C72.6849 14.1334 71.7059 13.8034 70.4167 13.8034C69.8691 13.8034 69.4029 13.839 69.0162 13.9134V21.8227C69.2303 21.8551 69.6219 21.8697 70.191 21.8697C71.5217 21.8697 72.5488 21.5089 73.2723 20.7874C73.9957 20.0658 74.3607 19.0143 74.3607 17.6327Z" fill="white"/>
<path d="M85.9147 19.2491C85.9147 20.422 85.5712 21.3829 84.8843 22.1368C84.1642 22.9117 83.2101 23.2984 82.0188 23.2984C80.8706 23.2984 79.9563 22.9279 79.2744 22.1837C78.5941 21.4412 78.2539 20.5045 78.2539 19.3753C78.2539 18.1943 78.604 17.2252 79.3075 16.473C80.0111 15.7207 80.9568 15.3438 82.1482 15.3438C83.2964 15.3438 84.2189 15.7142 84.9175 16.4568C85.5812 17.1783 85.9147 18.1101 85.9147 19.2491ZM84.1111 19.3041C84.1111 18.6003 83.9551 17.9969 83.6448 17.4938C83.2798 16.8855 82.7605 16.5813 82.0851 16.5813C81.3866 16.5813 80.8556 16.8855 80.4906 17.4938C80.1786 17.9969 80.0243 18.61 80.0243 19.3348C80.0243 20.0385 80.1803 20.642 80.4906 21.1451C80.8672 21.7534 81.3916 22.0575 82.0685 22.0575C82.7323 22.0575 83.2533 21.7485 83.6282 21.1289C83.9501 20.6161 84.1111 20.0078 84.1111 19.3041Z" fill="white"/>
<path d="M98.9499 15.5L96.5025 23.1262H94.9096L93.8958 19.8146C93.6386 18.9879 93.4296 18.1661 93.267 17.3507H93.2354C93.0844 18.1887 92.8754 19.009 92.6066 19.8146L91.5297 23.1262H89.9186L87.6172 15.5H89.4042L90.2886 19.1254C90.5026 19.9829 90.6785 20.7998 90.8196 21.5731H90.8511C90.9805 20.9357 91.1945 20.1236 91.4965 19.1416L92.6066 15.5016H94.0236L95.0872 19.064C95.3444 19.9327 95.5534 20.7691 95.7144 21.5748H95.7625C95.8803 20.7901 96.0578 19.9537 96.2935 19.064L97.2425 15.5016H98.9499V15.5Z" fill="white"/>
<path d="M107.965 23.1262H106.227V18.7582C106.227 17.4122 105.702 16.7392 104.65 16.7392C104.134 16.7392 103.718 16.9236 103.394 17.2941C103.074 17.6646 102.911 18.1014 102.911 18.6013V23.1246H101.172V17.6792C101.172 17.0094 101.151 16.283 101.109 15.4968H102.638L102.719 16.6891H102.767C102.969 16.3186 103.271 16.0128 103.668 15.7686C104.139 15.4838 104.667 15.3398 105.244 15.3398C105.974 15.3398 106.582 15.5696 107.064 16.0306C107.665 16.5952 107.965 17.4381 107.965 18.5576V23.1262Z" fill="white"/>
<path d="M112.761 23.1255H111.023V12H112.761V23.1255Z" fill="white"/>
<path d="M122.997 19.2491C122.997 20.422 122.653 21.3829 121.966 22.1368C121.246 22.9117 120.29 23.2984 119.101 23.2984C117.951 23.2984 117.037 22.9279 116.356 22.1837C115.676 21.4412 115.336 20.5045 115.336 19.3753C115.336 18.1943 115.686 17.2252 116.39 16.473C117.093 15.7207 118.039 15.3438 119.229 15.3438C120.378 15.3438 121.299 15.7142 122 16.4568C122.663 17.1783 122.997 18.1101 122.997 19.2491ZM121.191 19.3041C121.191 18.6003 121.035 17.9969 120.725 17.4938C120.362 16.8855 119.841 16.5813 119.167 16.5813C118.467 16.5813 117.936 16.8855 117.573 17.4938C117.261 17.9969 117.106 18.61 117.106 19.3348C117.106 20.0385 117.262 20.642 117.573 21.1451C117.949 21.7534 118.474 22.0575 119.151 22.0575C119.814 22.0575 120.334 21.7485 120.709 21.1289C121.032 20.6161 121.191 20.0078 121.191 19.3041Z" fill="white"/>
<path d="M131.414 23.1253H129.852L129.723 22.2468H129.675C129.14 22.9473 128.379 23.2984 127.39 23.2984C126.651 23.2984 126.054 23.067 125.604 22.6076C125.196 22.1902 124.992 21.6709 124.992 21.0545C124.992 20.1227 125.39 19.4125 126.192 18.9207C126.992 18.4289 128.117 18.1878 129.565 18.1991V18.0568C129.565 17.0521 129.024 16.5506 127.941 16.5506C127.169 16.5506 126.489 16.7399 125.901 17.1152L125.548 16.0022C126.275 15.5638 127.172 15.3438 128.231 15.3438C130.275 15.3438 131.301 16.3953 131.301 18.4984V21.3069C131.301 22.0689 131.339 22.6755 131.414 23.1253ZM129.608 20.5045V19.3283C127.69 19.296 126.731 19.8088 126.731 20.8652C126.731 21.2632 126.841 21.5609 127.065 21.7599C127.289 21.9588 127.574 22.0575 127.914 22.0575C128.296 22.0575 128.653 21.9394 128.978 21.7049C129.305 21.4687 129.505 21.1694 129.58 20.8021C129.598 20.7196 129.608 20.6193 129.608 20.5045Z" fill="white"/>
<path d="M141.295 23.1255H139.752L139.67 21.9008H139.622C139.129 22.8326 138.29 23.2986 137.11 23.2986C136.168 23.2986 135.383 22.9378 134.761 22.2163C134.138 21.4947 133.828 20.558 133.828 19.4078C133.828 18.1734 134.165 17.1737 134.842 16.4101C135.497 15.6982 136.3 15.3423 137.256 15.3423C138.306 15.3423 139.042 15.6869 139.46 16.3777H139.493V12H141.233V21.0709C141.233 21.8134 141.253 22.4978 141.295 23.1255ZM139.493 19.9093V18.6377C139.493 18.4177 139.476 18.2398 139.445 18.1039C139.347 17.6962 139.136 17.3532 138.816 17.0766C138.492 16.7999 138.102 16.6608 137.653 16.6608C137.004 16.6608 136.496 16.9116 136.123 17.4147C135.753 17.9178 135.565 18.5601 135.565 19.3447C135.565 20.0986 135.743 20.7101 136.1 21.1809C136.476 21.6824 136.984 21.9332 137.62 21.9332C138.19 21.9332 138.647 21.7245 138.993 21.3055C139.329 20.9188 139.493 20.4529 139.493 19.9093Z" fill="white"/>
<path d="M156.169 19.2491C156.169 20.422 155.825 21.3829 155.138 22.1368C154.418 22.9117 153.466 23.2984 152.273 23.2984C151.126 23.2984 150.212 22.9279 149.528 22.1837C148.848 21.4412 148.508 20.5045 148.508 19.3753C148.508 18.1943 148.858 17.2252 149.561 16.473C150.265 15.7207 151.211 15.3438 152.404 15.3438C153.55 15.3438 154.475 15.7142 155.171 16.4568C155.835 17.1783 156.169 18.1101 156.169 19.2491ZM154.367 19.3041C154.367 18.6003 154.211 17.9969 153.9 17.4938C153.534 16.8855 153.016 16.5813 152.339 16.5813C151.642 16.5813 151.111 16.8855 150.744 17.4938C150.433 17.9969 150.278 18.61 150.278 19.3348C150.278 20.0385 150.434 20.642 150.744 21.1451C151.121 21.7534 151.645 22.0575 152.322 22.0575C152.986 22.0575 153.509 21.7485 153.884 21.1289C154.204 20.6161 154.367 20.0078 154.367 19.3041Z" fill="white"/>
<path d="M165.518 23.1262H163.781V18.7582C163.781 17.4122 163.257 16.7392 162.203 16.7392C161.687 16.7392 161.271 16.9236 160.949 17.2941C160.627 17.6646 160.466 18.1014 160.466 18.6013V23.1246H158.725V17.6792C158.725 17.0094 158.706 16.283 158.664 15.4968H160.191L160.272 16.6891H160.32C160.524 16.3186 160.826 16.0128 161.221 15.7686C161.694 15.4838 162.22 15.3398 162.799 15.3398C163.527 15.3398 164.135 15.5696 164.617 16.0306C165.22 16.5952 165.518 17.4381 165.518 18.5576V23.1262Z" fill="white"/>
<path d="M177.221 16.7688H175.306V20.4735C175.306 21.4151 175.646 21.8859 176.32 21.8859C176.632 21.8859 176.891 21.86 177.095 21.8066L177.139 23.0927C176.796 23.2189 176.345 23.282 175.789 23.282C175.102 23.282 174.568 23.0782 174.181 22.6705C173.793 22.2628 173.6 21.5769 173.6 20.6143V16.7688H172.457V15.4989H173.6V14.1011L175.304 13.5996V15.4973H177.219V16.7688H177.221Z" fill="white"/>
<path d="M186.426 23.1255H184.685V18.7898C184.685 17.4228 184.161 16.7385 183.111 16.7385C182.304 16.7385 181.753 17.1348 181.451 17.9275C181.4 18.0942 181.37 18.298 181.37 18.5374V23.1238H179.633V12H181.37V16.5961H181.403C181.951 15.7597 182.736 15.3423 183.753 15.3423C184.473 15.3423 185.069 15.5721 185.541 16.0331C186.13 16.6074 186.426 17.4616 186.426 18.5908V23.1255Z" fill="white"/>
<path d="M195.923 18.9523C195.923 19.2564 195.899 19.512 195.858 19.7207H190.643C190.666 20.4746 190.915 21.0489 191.398 21.4469C191.839 21.8028 192.408 21.9808 193.105 21.9808C193.877 21.9808 194.58 21.861 195.214 21.62L195.486 22.7977C194.745 23.1116 193.872 23.2685 192.861 23.2685C191.65 23.2685 190.696 22.9207 190.006 22.225C189.312 21.5294 188.969 20.5959 188.969 19.4247C188.969 18.2744 189.289 17.3167 189.934 16.5531C190.608 15.7378 191.519 15.3301 192.669 15.3301C193.794 15.3301 194.648 15.7378 195.226 16.5531C195.692 17.2002 195.923 18.001 195.923 18.9523ZM194.263 18.5139C194.277 18.0107 194.162 17.5772 193.927 17.2116C193.625 16.7408 193.165 16.5046 192.543 16.5046C191.975 16.5046 191.512 16.7343 191.159 17.1954C190.87 17.5626 190.699 18.001 190.643 18.5139H194.263Z" fill="white"/>
<path d="M84.0832 52.1446H80.315L78.2509 45.8207H71.0762L69.11 52.1446H65.4414L72.5497 30.6152H76.9401L84.0832 52.1446ZM77.6287 43.1676L75.762 37.5458C75.5645 36.9715 75.1945 35.619 74.6486 33.49H74.5823C74.3649 34.4057 74.0148 35.7582 73.5336 37.5458L71.7001 43.1676H77.6287Z" fill="white"/>
<path d="M102.364 44.1907C102.364 46.8309 101.633 48.9178 100.169 50.4499C98.8584 51.8137 97.2307 52.4947 95.2877 52.4947C93.1904 52.4947 91.6838 51.7603 90.7662 50.2913H90.6999V58.4692H87.1623V41.73C87.1623 40.0702 87.1175 38.3667 87.0312 36.6195H90.1424L90.3398 39.0801H90.4062C91.5859 37.2262 93.3763 36.3008 95.7789 36.3008C97.6571 36.3008 99.2251 37.0239 100.48 38.4718C101.737 39.9214 102.364 41.8271 102.364 44.1907ZM98.7606 44.3169C98.7606 42.8059 98.4121 41.5602 97.7119 40.5798C96.947 39.5574 95.9199 39.0462 94.6323 39.0462C93.7595 39.0462 92.9664 39.3309 92.2579 39.8922C91.5477 40.4585 91.0832 41.1978 90.8658 42.1135C90.7563 42.5406 90.7015 42.89 90.7015 43.165V45.7535C90.7015 46.8827 91.0566 47.8355 91.7668 48.6137C92.4769 49.3918 93.3995 49.7801 94.5344 49.7801C95.8668 49.7801 96.9038 49.2786 97.6455 48.2788C98.3889 47.2774 98.7606 45.9573 98.7606 44.3169Z" fill="white"/>
<path d="M120.675 44.1907C120.675 46.8309 119.944 48.9178 118.478 50.4499C117.169 51.8137 115.542 52.4947 113.599 52.4947C111.501 52.4947 109.995 51.7603 109.079 50.2913H109.012V58.4692H105.475V41.73C105.475 40.0702 105.43 38.3667 105.344 36.6195H108.455L108.652 39.0801H108.719C109.897 37.2262 111.687 36.3008 114.091 36.3008C115.968 36.3008 117.536 37.0239 118.794 38.4718C120.046 39.9214 120.675 41.8271 120.675 44.1907ZM117.071 44.3169C117.071 42.8059 116.721 41.5602 116.021 40.5798C115.256 39.5574 114.232 39.0462 112.943 39.0462C112.069 39.0462 111.277 39.3309 110.567 39.8922C109.857 40.4585 109.394 41.1978 109.177 42.1135C109.069 42.5406 109.012 42.89 109.012 43.165V45.7535C109.012 46.8827 109.367 47.8355 110.074 48.6137C110.784 49.3902 111.707 49.7801 112.845 49.7801C114.178 49.7801 115.215 49.2786 115.956 48.2788C116.7 47.2774 117.071 45.9573 117.071 44.3169Z" fill="white"/>
<path d="M141.152 46.1061C141.152 47.9375 140.5 49.4274 139.191 50.5777C137.752 51.8347 135.749 52.4624 133.176 52.4624C130.8 52.4624 128.895 52.0159 127.453 51.1213L128.273 48.2465C129.826 49.1621 131.53 49.6216 133.387 49.6216C134.719 49.6216 135.756 49.3271 136.501 48.7415C137.243 48.1559 137.613 47.3696 137.613 46.3892C137.613 45.5156 137.307 44.7796 136.695 44.1826C136.086 43.5856 135.069 43.0307 133.649 42.5179C129.783 41.1121 127.851 39.0526 127.851 36.3445C127.851 34.5746 128.528 33.1235 129.884 31.9943C131.235 30.8634 133.037 30.2988 135.29 30.2988C137.299 30.2988 138.968 30.6402 140.301 31.3213L139.416 34.133C138.172 33.4729 136.765 33.1429 135.19 33.1429C133.946 33.1429 132.973 33.4422 132.277 34.0375C131.688 34.5698 131.392 35.2185 131.392 35.9869C131.392 36.8379 131.729 37.5416 132.406 38.0949C132.995 38.6061 134.065 39.1594 135.618 39.7564C137.518 40.5022 138.914 41.3741 139.811 42.3739C140.706 43.3705 141.152 44.6178 141.152 46.1061Z" fill="white"/>
<path d="M152.849 39.2085H148.95V46.7457C148.95 48.6628 149.637 49.6205 151.014 49.6205C151.646 49.6205 152.17 49.5671 152.585 49.4604L152.683 52.0795C151.986 52.3335 151.069 52.4613 149.932 52.4613C148.535 52.4613 147.443 52.0456 146.655 51.2157C145.87 50.3841 145.475 48.9896 145.475 47.0305V39.2053H143.152V36.6168H145.475V33.7744L148.95 32.752V36.6168H152.849V39.2085Z" fill="white"/>
<path d="M170.439 44.2541C170.439 46.6403 169.739 48.5995 168.342 50.1315C166.877 51.7088 164.932 52.4951 162.508 52.4951C160.172 52.4951 158.312 51.7396 156.924 50.2286C155.537 48.7176 154.844 46.8102 154.844 44.5113C154.844 42.1057 155.557 40.1353 156.989 38.6032C158.418 37.0696 160.346 36.3027 162.77 36.3027C165.106 36.3027 166.986 37.0582 168.405 38.5709C169.762 40.0382 170.439 41.9326 170.439 44.2541ZM166.769 44.3657C166.769 42.934 166.455 41.7061 165.82 40.6821C165.078 39.4428 164.018 38.8248 162.644 38.8248C161.222 38.8248 160.142 39.4445 159.4 40.6821C158.765 41.7077 158.451 42.955 158.451 44.4304C158.451 45.8622 158.765 47.0901 159.4 48.1125C160.165 49.3517 161.234 49.9697 162.612 49.9697C163.963 49.9697 165.023 49.3388 165.788 48.0802C166.44 47.0367 166.769 45.7959 166.769 44.3657Z" fill="white"/>
<path d="M181.941 39.6528C181.59 39.5897 181.217 39.5574 180.826 39.5574C179.581 39.5574 178.619 40.0152 177.942 40.9325C177.353 41.7414 177.057 42.7638 177.057 43.9982V52.1437H173.521L173.555 41.5084C173.555 39.7191 173.51 38.09 173.422 36.6211H176.503L176.633 39.5913H176.73C177.104 38.5705 177.693 37.7487 178.499 37.1323C179.287 36.5774 180.139 36.3008 181.056 36.3008C181.383 36.3008 181.678 36.3234 181.941 36.3639V39.6528Z" fill="white"/>
<path d="M197.76 43.6469C197.76 44.2649 197.718 44.7858 197.63 45.2113H187.017C187.059 46.745 187.572 47.9179 188.557 48.7268C189.452 49.4499 190.608 49.8123 192.028 49.8123C193.6 49.8123 195.033 49.568 196.323 49.0778L196.877 51.4721C195.37 52.1128 193.591 52.4315 191.539 52.4315C189.07 52.4315 187.132 51.7229 185.722 50.3073C184.315 48.8918 183.609 46.9909 183.609 44.6063C183.609 42.2653 184.265 40.3159 185.577 38.7612C186.951 37.1014 188.808 36.2715 191.144 36.2715C193.439 36.2715 195.176 37.1014 196.356 38.7612C197.29 40.0797 197.76 41.7105 197.76 43.6469ZM194.386 42.7523C194.409 41.7299 194.179 40.8466 193.699 40.1008C193.087 39.1414 192.146 38.6626 190.88 38.6626C189.724 38.6626 188.783 39.1301 188.064 40.0684C187.475 40.8142 187.125 41.7088 187.017 42.7507H194.386V42.7523Z" fill="white"/>
</svg>
