<svg width="393" height="319" viewBox="0 0 393 319" fill="none" xmlns="http://www.w3.org/2000/svg">
<circle cx="200.803" cy="160.004" r="49.467" fill="#5C68D1" fill-opacity="0.1"/>
<path d="M216.84 141.716L204.078 136.936C202.755 136.448 200.597 136.448 199.274 136.936L186.512 141.716C184.052 142.644 182.057 145.521 182.057 148.144V166.939C182.057 168.819 183.286 171.302 184.795 172.416L197.557 181.953C199.808 183.647 203.498 183.647 205.749 181.953L218.511 172.416C220.019 171.279 221.249 168.819 221.249 166.939V148.144C221.272 145.521 219.277 142.644 216.84 141.716ZM209.74 154.71L199.762 164.688C199.414 165.037 198.973 165.199 198.532 165.199C198.091 165.199 197.65 165.037 197.302 164.688L193.589 160.929C192.916 160.256 192.916 159.143 193.589 158.47C194.262 157.797 195.376 157.797 196.049 158.47L198.555 160.976L207.303 152.228C207.976 151.555 209.09 151.555 209.763 152.228C210.436 152.901 210.436 154.038 209.74 154.71Z" fill="#5C68D1"/>
<circle cx="200.802" cy="160.004" r="85.1806" stroke="#D9D9D9" stroke-width="0.852889"/>
<circle cx="200.804" cy="160.001" r="130.091" stroke="#D9D9D9" stroke-width="0.852889"/>
<rect x="59.125" y="86.916" width="37.095" height="37.095" rx="18.5475" fill="#D6D9F3"/>
<path d="M82.7022 97.8379H72.6518C72.3438 97.8379 72.0523 97.8462 71.7775 97.8629C68.8299 98.0128 67.7891 99.1452 67.7891 102.176V108.754C67.7891 112.043 68.9715 113.092 72.6435 113.092H82.7022C85.8913 113.092 87.515 112.451 87.5566 108.904V102.176C87.5566 98.8954 86.3742 97.8379 82.7022 97.8379ZM69.4544 102.176C69.4544 100.028 69.8124 99.6281 71.8525 99.5199C72.094 99.5116 72.3604 99.5032 72.6518 99.5032H82.7022C85.6165 99.5032 85.8913 99.9779 85.8913 102.176V103.542H69.4544V102.176ZM85.8913 108.897C85.8663 110.953 85.5749 111.428 82.7022 111.428H72.6435C69.7292 111.428 69.4544 110.962 69.4544 108.755V105.208H85.8913V108.897Z" fill="#5C68D1"/>
<path d="M73.6894 109.665H72.0241C71.5644 109.665 71.1914 109.292 71.1914 108.833C71.1914 108.373 71.5644 108 72.0241 108H73.6894C74.149 108 74.5221 108.373 74.5221 108.833C74.5221 109.292 74.149 109.665 73.6894 109.665Z" fill="#5C68D1"/>
<path d="M79.8595 109.665H76.737C76.2773 109.665 75.9043 109.292 75.9043 108.833C75.9043 108.373 76.2773 108 76.737 108H79.8595C80.3191 108 80.6921 108.373 80.6921 108.833C80.6921 109.292 80.3191 109.665 79.8595 109.665Z" fill="#5C68D1"/>
<rect x="305.385" y="99.4902" width="37.095" height="37.095" rx="18.5475" fill="#D6D9F3"/>
<path d="M314.628 125.441V113.693C314.628 111.789 315.627 110.782 317.522 110.782H318.951V109.188C318.951 107.276 319.959 106.269 321.845 106.269H329.881C331.767 106.269 332.775 107.285 332.775 109.188V120.936C332.775 122.839 331.767 123.847 329.881 123.847H328.451V125.441C328.451 127.344 327.444 128.36 325.557 128.36H317.522C315.627 128.36 314.628 127.353 314.628 125.441ZM323.266 108.878C323.266 109.171 323.49 109.447 323.869 109.447H327.857C328.236 109.447 328.46 109.171 328.46 108.878V108.672C328.46 108.413 328.27 108.103 327.857 108.103H323.869C323.465 108.103 323.266 108.413 323.266 108.672V108.878ZM316.549 125.277C316.549 126.035 316.927 126.44 317.711 126.44H325.359C326.152 126.44 326.531 126.035 326.531 125.277V113.856C326.531 113.107 326.152 112.694 325.359 112.694H317.711C316.927 112.694 316.549 113.107 316.549 113.856V125.277ZM321.544 115.992C323.31 115.992 324.765 117.258 325.067 118.929H325.712C326.04 118.929 326.134 119.257 325.945 119.524L324.903 120.953C324.705 121.22 324.377 121.212 324.188 120.953L323.137 119.524C322.939 119.257 323.034 118.929 323.37 118.929H323.878C323.602 117.904 322.664 117.146 321.544 117.146C320.993 117.146 320.51 117.327 320.114 117.62C319.752 117.87 319.417 117.767 319.253 117.543C319.081 117.301 319.098 116.923 319.468 116.664C320.019 116.259 320.752 115.992 321.544 115.992ZM317.384 120.204C317.048 120.204 316.953 119.868 317.151 119.61L318.185 118.18C318.383 117.913 318.719 117.922 318.908 118.18L319.959 119.61C320.157 119.877 320.063 120.204 319.727 120.204H319.21C319.494 121.229 320.433 121.987 321.544 121.987C322.095 121.987 322.586 121.806 322.974 121.505C323.344 121.263 323.671 121.367 323.835 121.591C324.007 121.832 323.99 122.211 323.62 122.469C323.077 122.874 322.345 123.141 321.544 123.141C319.787 123.141 318.323 121.875 318.03 120.204H317.384Z" fill="#5C68D1"/>
<rect x="209.141" y="9.98242" width="39.0147" height="39.0147" rx="19.5073" fill="#D6D6D6"/>
<path d="M223.463 27.7606V26.0319C223.463 23.1708 224.327 20.8457 228.649 20.8457C232.971 20.8457 233.835 23.1708 233.835 26.0319V27.7606" stroke="#7A7A7A" stroke-width="1.72873" stroke-linecap="round" stroke-linejoin="round"/>
<path d="M228.649 35.1089C229.843 35.1089 230.81 34.1415 230.81 32.948C230.81 31.7546 229.843 30.7871 228.649 30.7871C227.456 30.7871 226.488 31.7546 226.488 32.948C226.488 34.1415 227.456 35.1089 228.649 35.1089Z" stroke="#7A7A7A" stroke-width="1.72873" stroke-linecap="round" stroke-linejoin="round"/>
<path d="M232.969 38.1341H224.326C220.868 38.1341 220.004 37.2697 220.004 33.8123V32.0835C220.004 28.6261 220.868 27.7617 224.326 27.7617H232.969C236.427 27.7617 237.291 28.6261 237.291 32.0835V33.8123C237.291 37.2697 236.427 38.1341 232.969 38.1341Z" stroke="#7A7A7A" stroke-width="1.72873" stroke-linecap="round" stroke-linejoin="round"/>
<rect x="269.209" y="239.129" width="45.0873" height="45.0873" rx="22.5437" fill="#D6D9F3"/>
<path d="M298.392 264.16C296.635 265.909 294.119 266.446 291.91 265.755L287.893 269.764C287.603 270.062 287.031 270.241 286.622 270.182L284.763 269.926C284.149 269.84 283.577 269.26 283.483 268.646L283.228 266.787C283.168 266.378 283.364 265.806 283.645 265.516L287.654 261.508C286.972 259.29 287.501 256.774 289.257 255.026C291.773 252.51 295.859 252.51 298.383 255.026C300.908 257.542 300.908 261.644 298.392 264.16Z" stroke="#5C68D1" stroke-width="1.70578" stroke-miterlimit="10" stroke-linecap="round" stroke-linejoin="round"/>
<path d="M287.391 266.338L289.352 268.3" stroke="#5C68D1" stroke-width="1.70578" stroke-miterlimit="10" stroke-linecap="round" stroke-linejoin="round"/>
<path d="M294.048 257.886C294.87 257.969 295.511 258.663 295.511 259.507C295.511 260.407 294.782 261.136 293.882 261.136C293.038 261.136 292.344 260.495 292.261 259.673L292.253 259.507L292.261 259.34C292.344 258.518 293.038 257.878 293.882 257.878L294.048 257.886Z" stroke="#5C68D1" stroke-width="1.70578" stroke-linecap="round" stroke-linejoin="round"/>
<rect x="100.68" y="243.924" width="32.7883" height="32.7883" rx="16.3941" fill="#D6D9F3"/>
<path d="M117.079 256.968C117.676 256.968 118.161 256.483 118.161 255.885C118.161 255.287 117.676 254.803 117.079 254.803C116.481 254.803 115.996 255.287 115.996 255.885C115.996 256.483 116.481 256.968 117.079 256.968Z" fill="#5C68D1"/>
<path d="M123.058 264.271V259.403C124.224 259.393 124.632 258.78 124.768 258.262C124.817 258.073 124.817 257.907 124.817 257.631C124.817 256.54 124.353 255.748 123.397 255.208L120.526 253.585C118.96 252.701 118.098 252.213 117.075 252.213C116.051 252.213 115.188 252.701 113.621 253.586L110.752 255.208C109.797 255.747 109.332 256.54 109.332 257.631C109.332 257.908 109.332 258.074 109.381 258.263C109.517 258.78 109.925 259.394 111.091 259.404V264.272C110.06 264.759 109.332 265.91 109.332 267.251C109.332 267.897 109.83 268.422 110.44 268.422H123.709C124.32 268.422 124.817 267.897 124.817 267.251C124.817 265.91 124.089 264.758 123.058 264.271ZM112.61 259.405H114.127V263.914H112.61V259.405ZM115.646 259.405H118.503V264.024H115.646V259.405ZM121.539 263.914H120.022V259.405H121.539V263.914ZM110.853 257.877C110.848 257.819 110.85 257.743 110.85 257.63C110.85 257.081 111.014 256.804 111.498 256.53L114.369 254.908C117.14 253.342 117.007 253.341 119.78 254.908L122.65 256.53C123.134 256.803 123.298 257.081 123.298 257.63C123.298 257.758 123.301 257.838 123.332 257.851C123.325 257.855 123.26 257.885 123.031 257.885H111.117C110.983 257.885 110.905 257.875 110.87 257.875C110.862 257.875 110.856 257.875 110.853 257.877ZM110.879 266.902C111.005 266.126 111.543 265.542 112.187 265.542H121.962C122.606 265.542 123.144 266.127 123.27 266.902H110.879Z" fill="#5C68D1"/>
</svg>
