<svg width="195" height="48" viewBox="0 0 195 48" fill="none" xmlns="http://www.w3.org/2000/svg">
<g clip-path="url(#clip0_12670_276280)">
<path d="M63.4707 42.3286V5.75063C63.4707 5.27663 63.8547 4.89062 64.3307 4.89062H77.0667C79.0367 4.89062 80.8187 5.29263 82.4147 6.09462C84.0107 6.89862 85.2767 8.05262 86.2167 9.55662C87.1567 11.0606 87.6267 12.8606 87.6267 14.9606C87.6267 15.9806 87.4627 16.9846 87.1347 17.9686C86.8067 18.9546 86.3407 19.8206 85.7407 20.5666C85.1387 21.3146 84.4087 21.8446 83.5527 22.1546C84.7187 22.4466 85.6907 22.9706 86.4667 23.7266C87.2427 24.4846 87.8567 25.3626 88.3127 26.3646C88.7687 27.3686 89.0927 28.4066 89.2847 29.4826C89.4767 30.5586 89.5727 31.5806 89.5727 32.5466C89.5727 34.5886 89.0807 36.4146 88.0947 38.0186C87.1087 39.6226 85.7927 40.8866 84.1427 41.8066C82.4927 42.7286 80.6727 43.1886 78.6847 43.1886H64.3347C63.8607 43.1886 63.4747 42.8046 63.4747 42.3286H63.4707ZM69.1607 19.1866C69.1607 19.6606 69.5447 20.0466 70.0207 20.0466H76.4647C77.9607 20.0466 79.2467 19.5906 80.3227 18.6786C81.3987 17.7666 81.9367 16.5166 81.9367 14.9306C81.9367 13.2346 81.3987 11.9626 80.3227 11.1146C79.2467 10.2666 77.9607 9.84263 76.4647 9.84263H70.0207C69.5467 9.84263 69.1607 10.2266 69.1607 10.7026V19.1866ZM69.1607 37.4046C69.1607 37.8786 69.5447 38.2646 70.0207 38.2646H78.1347C79.3007 38.2646 80.3647 37.9726 81.3207 37.3886C82.2767 36.8046 83.0387 35.9986 83.6047 34.9686C84.1707 33.9386 84.4527 32.7746 84.4527 31.4806C84.4527 30.3486 84.1707 29.2786 83.6047 28.2666C83.0407 27.2546 82.2787 26.4386 81.3207 25.8186C80.3627 25.1986 79.3007 24.8886 78.1347 24.8886H70.0207C69.5467 24.8886 69.1607 25.2726 69.1607 25.7486V37.4046Z" fill="#262626"/>
<path d="M105.764 43.8965C103.248 43.8965 100.954 43.2485 98.8839 41.9545C96.8139 40.6585 95.1639 38.9205 93.9339 36.7425C92.7019 34.5645 92.0879 32.1525 92.0879 29.5085C92.0879 27.5025 92.4439 25.6285 93.1539 23.8865C93.8639 22.1445 94.8459 20.6125 96.0939 19.2905C97.3419 17.9685 98.7979 16.9345 100.456 16.1845C102.116 15.4385 103.884 15.0625 105.764 15.0625C107.86 15.0625 109.784 15.4965 111.536 16.3625C113.288 17.2285 114.782 18.4245 116.022 19.9465C117.262 21.4685 118.174 23.2205 118.758 25.1985C119.342 27.1765 119.514 29.2785 119.278 31.5025H98.1879C98.4239 32.7605 98.8859 33.8965 99.5699 34.9085C100.254 35.9205 101.13 36.7205 102.196 37.3025C103.262 37.8865 104.452 38.1865 105.766 38.2065C107.152 38.2065 108.414 37.8605 109.554 37.1685C110.532 36.5725 111.36 35.7825 112.036 34.7965C112.238 34.5025 112.586 34.3465 112.934 34.4285L117.064 35.3885C117.606 35.5145 117.908 36.1285 117.644 36.6185C116.568 38.6025 115.08 40.2585 113.178 41.5865C110.972 43.1265 108.5 43.8985 105.766 43.8985L105.764 43.8965ZM98.5339 27.1545H113.01C113.28 27.1545 113.498 26.9025 113.444 26.6365C113.222 25.5265 112.79 24.5105 112.15 23.5845C111.412 22.5185 110.49 21.6685 109.388 21.0425C108.284 20.4125 107.076 20.0985 105.764 20.0985C104.468 20.0985 103.27 20.4085 102.166 21.0285C101.064 21.6505 100.15 22.4925 99.4299 23.5605C98.8059 24.4845 98.3639 25.5045 98.1039 26.6265C98.0419 26.8945 98.2579 27.1585 98.5339 27.1585V27.1545Z" fill="#262626"/>
<path d="M146.458 26.0305V42.3225C146.458 42.7965 146.074 43.1825 145.598 43.1825H141.626C141.152 43.1825 140.766 42.7985 140.766 42.3225V27.4265C140.766 26.2045 140.47 25.0925 139.878 24.0905C139.286 23.0865 138.492 22.2885 137.498 21.6965C136.504 21.1045 135.388 20.8065 134.146 20.8065C132.942 20.8065 131.838 21.1045 130.836 21.6965C129.832 22.2885 129.03 23.0865 128.428 24.0905C127.826 25.0925 127.526 26.2045 127.526 27.4265V42.3225C127.526 42.7965 127.142 43.1825 126.666 43.1825H122.694C122.22 43.1825 121.834 42.7985 121.834 42.3225V16.6865C121.834 16.2125 122.218 15.8265 122.694 15.8265H126.666C127.14 15.8265 127.526 16.2105 127.526 16.6865V18.7285C128.474 17.5965 129.64 16.7045 131.028 16.0465C132.414 15.3905 133.91 15.0625 135.514 15.0625C137.538 15.0625 139.38 15.5545 141.04 16.5405C142.7 17.5245 144.016 18.8465 144.992 20.5065C145.968 22.1665 146.456 24.0085 146.456 26.0325L146.458 26.0305Z" fill="#262626"/>
<path d="M163.873 21.5164H159.417C159.179 21.5164 158.987 21.7084 158.987 21.9464L158.961 42.3224C158.961 42.7964 158.575 43.1804 158.101 43.1804H154.129C153.653 43.1804 153.269 42.7944 153.269 42.3204L153.295 21.9464C153.295 21.7084 153.103 21.5164 152.865 21.5164H149.805C149.331 21.5164 148.945 21.1324 148.945 20.6564V16.6844C148.945 16.2104 149.329 15.8244 149.805 15.8244H152.865C153.103 15.8244 153.295 15.6304 153.295 15.3924L153.271 8.09638C153.271 7.62038 153.655 7.23438 154.131 7.23438H158.103C158.577 7.23438 158.961 7.61837 158.963 8.09037L158.985 15.3944C158.985 15.6304 159.177 15.8224 159.415 15.8224H163.871C164.345 15.8224 164.731 16.2064 164.731 16.6824V20.6544C164.731 21.1284 164.347 21.5144 163.871 21.5144L163.873 21.5164Z" fill="#262626"/>
<path d="M180.901 43.8965C178.385 43.8965 176.091 43.2485 174.021 41.9545C171.951 40.6585 170.301 38.9205 169.071 36.7425C167.839 34.5645 167.225 32.1525 167.225 29.5085C167.225 27.5025 167.581 25.6285 168.291 23.8865C169.001 22.1445 169.983 20.6125 171.231 19.2905C172.479 17.9685 173.935 16.9345 175.593 16.1845C177.253 15.4385 179.021 15.0625 180.901 15.0625C183.417 15.0625 185.711 15.7105 187.781 17.0045C189.851 18.2985 191.501 20.0405 192.733 22.2305C193.963 24.4185 194.579 26.8425 194.579 29.5065C194.579 31.4945 194.223 33.3545 193.511 35.0865C192.799 36.8185 191.819 38.3465 190.571 39.6685C189.323 40.9905 187.871 42.0245 186.221 42.7745C184.571 43.5205 182.797 43.8965 180.901 43.8965ZM180.901 38.2065C182.415 38.2065 183.773 37.8045 184.977 37.0025C186.181 36.2005 187.133 35.1385 187.835 33.8145C188.537 32.4945 188.887 31.0565 188.887 29.5065C188.887 27.9185 188.527 26.4605 187.807 25.1285C187.087 23.7965 186.125 22.7345 184.921 21.9405C183.717 21.1485 182.379 20.7525 180.901 20.7525C179.405 20.7525 178.051 21.1545 176.839 21.9565C175.627 22.7585 174.669 23.8245 173.967 25.1565C173.265 26.4885 172.913 27.9385 172.913 29.5065C172.913 31.1305 173.279 32.5965 174.007 33.9085C174.737 35.2225 175.707 36.2665 176.921 37.0405C178.133 37.8165 179.461 38.2045 180.901 38.2045V38.2065Z" fill="#262626"/>
<path d="M7.3 0.0703125H16.066C20.094 0.0703125 23.366 3.34031 23.366 7.37031V47.0003C23.366 47.5503 22.92 47.9983 22.368 47.9983H7.3C3.27 47.9983 0 44.7283 0 40.6983V7.37031C0 3.34231 3.27 0.0703125 7.3 0.0703125Z" fill="#262626"/>
<path d="M33.5314 25.3672H41.8134C45.7734 25.3672 48.9874 28.5812 48.9874 32.5412V40.7952C48.9874 44.7552 45.7734 47.9692 41.8134 47.9692H27.3374C26.7954 47.9692 26.3574 47.5292 26.3574 46.9892V32.5412C26.3574 28.5812 29.5714 25.3672 33.5314 25.3672Z" fill="#5C68D1"/>
<path d="M37.6723 22.868C43.9871 22.868 49.1063 17.7488 49.1063 11.434C49.1063 5.11918 43.9871 0 37.6723 0C31.3575 0 26.2383 5.11918 26.2383 11.434C26.2383 17.7488 31.3575 22.868 37.6723 22.868Z" fill="#D1D1D1"/>
</g>
<defs>
<clipPath id="clip0_12670_276280">
<rect width="194.578" height="48" fill="white"/>
</clipPath>
</defs>
</svg>
