<svg width="50" height="48" viewBox="0 0 50 48" fill="none" xmlns="http://www.w3.org/2000/svg">
<path d="M7.3 0.0703125H16.066C20.094 0.0703125 23.366 3.34031 23.366 7.37031V47.0003C23.366 47.5503 22.92 47.9983 22.368 47.9983H7.3C3.27 47.9983 0 44.7283 0 40.6983V7.37031C0 3.34231 3.27 0.0703125 7.3 0.0703125Z" fill="#262626"/>
<path d="M33.5314 25.3672H41.8134C45.7734 25.3672 48.9874 28.5812 48.9874 32.5412V40.7952C48.9874 44.7552 45.7734 47.9692 41.8134 47.9692H27.3374C26.7954 47.9692 26.3574 47.5292 26.3574 46.9892V32.5412C26.3574 28.5812 29.5714 25.3672 33.5314 25.3672Z" fill="#5C68D1"/>
<path d="M37.6723 22.868C43.9871 22.868 49.1063 17.7488 49.1063 11.434C49.1063 5.11918 43.9871 0 37.6723 0C31.3575 0 26.2383 5.11918 26.2383 11.434C26.2383 17.7488 31.3575 22.868 37.6723 22.868Z" fill="#D1D1D1"/>
</svg>
